<svg version="1.1"
    xmlns="http://www.w3.org/2000/svg"
    xmlns:xlink="http://www.w3.org/1999/xlink" viewBox="0 0 172 172">
    <g fill="none" fill-rule="nonzero" stroke="none" stroke-width="1" stroke-linecap="butt" stroke-linejoin="miter" stroke-miterlimit="10" stroke-dasharray="" stroke-dashoffset="0" font-family="none" font-weight="none" font-size="none" text-anchor="none" style="mix-blend-mode: normal">
        <path d="M0,172v-172h172v172z" fill="none"></path>
        <g>
            <path d="M161.25,125.41667c0,7.91558 -6.41775,14.33333 -14.33333,14.33333h-121.83333c-7.91558,0 -14.33333,-6.41775 -14.33333,-14.33333v-78.83333c0,-7.91558 6.41775,-14.33333 14.33333,-14.33333h121.83333c7.91558,0 14.33333,6.41775 14.33333,14.33333z" fill="#1976d2"></path>
            <path d="M79.74708,71.66667l-7.57158,16.78075l-7.53575,-16.78075h-9.65708v24.1015l-10.76075,-24.1015h-8.1485l-10.99008,25.01525h6.50375l2.40442,-5.58283h12.298l2.44383,5.58283h12.41625v-18.57958l8.23808,18.57958h5.60075l8.42442,-18.25708v18.25708h6.1705v-25.01525zM36.31708,85.69542l3.6765,-8.74333l3.81983,8.74333zM135.74742,83.89658l11.16925,-12.16542h-7.94425l-7.14517,7.75433l-6.91225,-7.81883h-24.58167v25.01883h23.77542l7.49633,-8.28108l7.31,8.34558h7.91917zM120.85867,91.43233h-14.37275v-4.94858h13.75283v-4.74075h-13.75283v-4.687l15.17183,0.043l6.06658,6.79758z" fill="#ffffff"></path>
        </g>
    </g>
</svg>