<svg version="1.1"
    xmlns="http://www.w3.org/2000/svg"
    xmlns:xlink="http://www.w3.org/1999/xlink" viewBox="0 0 172 172">
    <defs>
        <linearGradient x1="86" y1="134.01756" x2="86" y2="-8.858" gradientUnits="userSpaceOnUse" id="color-2">
            <stop offset="0" stop-color="#155cde"></stop>
            <stop offset="0.278" stop-color="#1f7fe5"></stop>
            <stop offset="0.569" stop-color="#279ceb"></stop>
            <stop offset="0.82" stop-color="#2cafef"></stop>
            <stop offset="1" stop-color="#2eb5f0"></stop>
        </linearGradient>
        <linearGradient x1="44.34375" y1="87.38675" x2="44.34375" y2="53.5995" gradientUnits="userSpaceOnUse" id="color-3">
            <stop offset="0" stop-color="#feaa53"></stop>
            <stop offset="0.612" stop-color="#ffcd49"></stop>
            <stop offset="1" stop-color="#ffde44"></stop>
        </linearGradient>
    </defs>
    <g fill="none" fill-rule="nonzero" stroke="none" stroke-width="1" stroke-linecap="butt" stroke-linejoin="miter" stroke-miterlimit="10" stroke-dasharray="" stroke-dashoffset="0" font-family="none" font-weight="none" font-size="none" text-anchor="none" style="mix-blend-mode: normal">
        <path d="M0,172v-172h172v172z" fill="none"></path>
        <g>
            <path d="M165.28394,48.3965h-13.67937c-2.95625,0 -5.375,-2.41875 -5.375,-5.375c0,-2.95625 2.41875,-5.375 5.375,-5.375h5.375c4.97187,0 8.9225,-4.54187 7.90125,-9.675c-0.7525,-3.84313 -4.35375,-6.45 -8.25062,-6.45l-34.34894,-0.0215c-2.23062,0 -4.03125,-1.80062 -4.03125,-4.03125c0,-2.23062 1.80063,-4.03125 4.03125,-4.03125h15.88312c3.06375,0 5.9125,-1.935 6.71875,-4.89125c1.20938,-4.46125 -2.17687,-8.54625 -6.47687,-8.54625h-118.00812c-3.06375,0 -5.9125,1.935 -6.71875,4.89125c-1.20938,4.46125 2.17688,8.54625 6.47688,8.54625h8.0625c1.85437,0 3.5475,0.7525 4.75688,1.96188c1.20938,1.20937 1.96187,2.9025 1.96187,4.75687c0,3.70875 -3.01,6.71875 -6.71875,6.71875h-17.46875c-4.43437,0 -8.0625,3.62813 -8.0625,8.0625c0,4.43438 3.62813,8.0625 8.0625,8.0625h56.4375c0.94062,0 1.85438,-0.18812 2.6875,-0.51062v19.32312h-34.9375v24.1875h12.09375c3.70875,0 6.71875,3.01 6.71875,6.71875c0,1.85437 -0.7525,3.5475 -1.96187,4.75688c-1.20938,1.20937 -2.9025,1.96187 -4.75688,1.96187h-21.5c-3.70875,0 -6.71875,3.01 -6.71875,6.71875c0,3.70875 3.01,6.71875 6.71875,6.71875h10.75c3.24919,0 5.96088,2.30856 6.58438,5.375h-28.08437c-6.65156,0 -12.09375,5.44219 -12.09375,12.09375c0,6.65156 5.44219,12.09375 12.09375,12.09375h51.0625c3.70875,0 6.71875,3.01 6.71875,6.71875c0,3.70875 -3.01,6.71875 -6.71875,6.71875h-14.78125c-4.46125,0 -8.0625,3.60125 -8.0625,8.0625c0,4.46125 3.60125,8.0625 8.0625,8.0625h107.5c4.46125,0 8.0625,-3.60125 8.0625,-8.0625c0,-4.46125 -3.60125,-8.0625 -8.0625,-8.0625h-14.78125c-3.70875,0 -6.71875,-3.01 -6.71875,-6.71875c0,-3.70875 3.01,-6.71875 6.71875,-6.71875h10.75c6.65156,0 12.09375,-5.44219 12.09375,-12.09375c0,-6.65156 -5.44219,-12.09375 -12.09375,-12.09375h-27.04431c0.84388,-4.26506 -2.408,-8.0625 -6.54944,-8.0625c-2.23062,0 2.6875,-1.80063 2.6875,-4.03125c0,-2.23062 1.80063,-4.03125 4.03125,-4.03125h7.82062c3.06375,0 5.9125,-1.935 6.71875,-4.89125c1.20938,-4.46125 -2.17687,-11.23375 -6.47687,-11.23375h-1.34375c-2.95625,0 -5.375,-15.85625 -5.375,-18.8125c0,-2.95625 2.41875,-5.375 5.375,-5.375l30.66706,0.0215c3.06375,0 5.9125,-1.935 6.71875,-4.89125c1.1825,-4.46394 -2.20375,-8.54625 -6.47688,-8.54625z" fill="url(#color-1)"></path>
            <path d="M16.125,120.9375v-69.875c0,-8.90637 7.21862,-16.125 16.125,-16.125h107.5c8.90637,0 16.125,7.21863 16.125,16.125v69.875c0,8.90637 -7.21863,16.125 -16.125,16.125h-107.5c-8.90638,0 -16.125,-7.21863 -16.125,-16.125z" fill="url(#color-2)"></path>
            <path d="M56.4375,61.8125v10.75c0,2.96969 -2.40531,5.375 -5.375,5.375h-13.4375c-2.96969,0 -5.375,-2.40531 -5.375,-5.375v-10.75c0,-2.96969 2.40531,-5.375 5.375,-5.375h13.4375c2.96969,0 5.375,2.40531 5.375,5.375z" fill="url(#color-3)"></path>
            <path d="M47.03125,88.6875h-10.75c-2.22525,0 -4.03125,1.806 -4.03125,4.03125v0c0,2.22525 1.806,4.03125 4.03125,4.03125h10.75c2.22525,0 4.03125,-1.806 4.03125,-4.03125v0c0,-2.22525 -1.806,-4.03125 -4.03125,-4.03125zM76.59375,107.5h-40.3125c-2.22525,0 -4.03125,1.806 -4.03125,4.03125v0c0,2.22525 1.806,4.03125 4.03125,4.03125h40.3125c2.22525,0 4.03125,-1.806 4.03125,-4.03125v0c0,-2.22525 -1.806,-4.03125 -4.03125,-4.03125zM76.59375,88.6875h-10.75c-2.22525,0 -4.03125,1.806 -4.03125,4.03125v0c0,2.22525 1.806,4.03125 4.03125,4.03125h10.75c2.22525,0 4.03125,-1.806 4.03125,-4.03125v0c0,-2.22525 -1.806,-4.03125 -4.03125,-4.03125zM106.15625,88.6875h-10.75c-2.22525,0 -4.03125,1.806 -4.03125,4.03125v0c0,2.22525 1.806,4.03125 4.03125,4.03125h10.75c2.22525,0 4.03125,-1.806 4.03125,-4.03125v0c0,-2.22525 -1.806,-4.03125 -4.03125,-4.03125zM135.71875,88.6875h-10.75c-2.22525,0 -4.03125,1.806 -4.03125,4.03125v0c0,2.22525 1.806,4.03125 4.03125,4.03125h10.75c2.22525,0 4.03125,-1.806 4.03125,-4.03125v0c0,-2.22525 -1.806,-4.03125 -4.03125,-4.03125z" fill="#c7e3fa"></path>
            <path d="M72.5625,56.4375h64.5c1.4835,0 2.6875,1.204 2.6875,2.6875v8.0625c0,1.4835 -1.204,2.6875 -2.6875,2.6875h-64.5c-1.4835,0 -2.6875,-1.204 -2.6875,-2.6875v-8.0625c0,-1.4835 1.204,-2.6875 2.6875,-2.6875z" fill="#9fd2f6"></path>
        </g>
    </g>
</svg>