<svg version="1.1" xmlns="http://www.w3.org/2000/svg" xmlns:xlink="http://www.w3.org/1999/xlink" viewBox="0 0 172 172"><g fill="none" fill-rule="nonzero" stroke="none" stroke-width="1" stroke-linecap="butt" stroke-linejoin="miter" stroke-miterlimit="10" stroke-dasharray="" stroke-dashoffset="0" font-family="none" font-weight="none" font-size="none" text-anchor="none" style="mix-blend-mode: normal"><path d="M0,172v-172h172v172z" fill="none"></path><g><path d="M161.25,125.41667c0,7.88333 -6.45,14.33333 -14.33333,14.33333h-121.83333c-7.88333,0 -14.33333,-6.45 -14.33333,-14.33333v-78.83333c0,-7.88333 6.45,-14.33333 14.33333,-14.33333h121.83333c7.88333,0 14.33333,6.45 14.33333,14.33333z" fill="#e1e7ea"></path><path d="M161.25,125.41667c0,7.88333 -6.45,14.33333 -14.33333,14.33333h-89.58333c0,0 84.56667,-13.61667 103.91667,-53.75zM78.83333,86c0,6.09167 4.65833,10.75 10.75,10.75c6.09167,0 10.75,-4.65833 10.75,-10.75c0,-6.09167 -4.65833,-10.75 -10.75,-10.75c-6.09167,0 -10.75,4.65833 -10.75,10.75z" fill="#ff6d00"></path><path d="M40.13333,75.25h3.94167v21.5h-3.94167zM61.63333,86c0,6.09167 4.65833,10.75 10.75,10.75c1.79167,0 3.225,-0.35833 5.01667,-1.075v-4.65833c-1.43333,1.43333 -2.86667,2.15 -5.01667,2.15c-3.94167,0 -6.80833,-2.86667 -6.80833,-7.16667c0,-3.94167 2.86667,-7.16667 6.80833,-7.16667c1.79167,0 3.225,0.71667 5.01667,2.15v-4.65833c-1.79167,-0.71667 -3.225,-1.43333 -5.01667,-1.43333c-6.09167,0.35833 -10.75,5.375 -10.75,11.10833zM109.65,89.225l-5.73333,-13.975h-4.3l8.95833,21.5h2.15l8.95833,-21.5h-4.3zM121.475,96.75h11.46667v-3.58333h-7.525v-5.73333h7.16667v-3.58333h-7.16667v-5.01667h7.525v-3.58333h-11.46667zM148.70833,81.7c0,-3.94167 -2.50833,-6.45 -7.16667,-6.45h-6.09167v21.5h3.94167v-8.6h0.35833l5.73333,8.6h5.01667l-6.45,-8.95833c2.86667,-0.71667 4.65833,-2.86667 4.65833,-6.09167zM140.46667,85.28333h-1.075v-6.45h1.075c2.50833,0 3.94167,1.075 3.94167,3.225c0,1.79167 -1.075,3.225 -3.94167,3.225zM27.59167,75.25h-6.09167v21.5h5.73333c8.95833,0 11.10833,-7.525 11.10833,-10.75c0.35833,-6.45 -4.3,-10.75 -10.75,-10.75zM26.51667,93.16667h-1.075v-14.33333h1.43333c5.375,0 7.525,3.58333 7.525,7.16667c0,1.43333 -0.35833,7.16667 -7.88333,7.16667zM54.825,83.49167c-2.50833,-1.075 -3.225,-1.43333 -3.225,-2.50833c0,-1.43333 1.43333,-2.15 2.86667,-2.15c1.075,0 2.15,0.35833 3.225,1.79167l2.15,-2.86667c-1.79167,-1.79167 -3.58333,-2.50833 -6.09167,-2.50833c-3.58333,0 -6.45,2.50833 -6.45,6.09167c0,2.86667 1.43333,4.3 5.01667,5.73333c2.15,0.71667 3.94167,1.43333 3.94167,3.225c0,1.79167 -1.43333,2.86667 -3.225,2.86667c-1.79167,0 -3.58333,-1.075 -4.3,-2.86667l-2.50833,2.50833c1.79167,2.86667 3.94167,3.94167 7.16667,3.94167c4.3,0 7.16667,-2.86667 7.16667,-6.80833c0,-3.225 -1.43333,-4.65833 -5.73333,-6.45z" fill="#000000"></path></g></g></svg>