<svg version="1.1" xmlns="http://www.w3.org/2000/svg" xmlns:xlink="http://www.w3.org/1999/xlink" viewBox="0 0 172 172"><g fill="none" fill-rule="nonzero" stroke="none" stroke-width="1" stroke-linecap="butt" stroke-linejoin="miter" stroke-miterlimit="10" stroke-dasharray="" stroke-dashoffset="0" font-family="none" font-weight="none" font-size="none" text-anchor="none" style="mix-blend-mode: normal"><path d="M0,172v-172h172v172z" fill="none"></path><g><path d="M168.41667,53.75c0,77.04167 0.7525,74.13917 -1.935,78.83333c-2.55778,4.4302 -7.28278,7.16142 -12.39833,7.16667h-136.16667c-7.91608,0 -14.33333,-6.41725 -14.33333,-14.33333v-71.66667z" fill="#c6c3d8"></path><path d="M168.41667,53.75c0,77.04167 0.7525,74.13917 -1.935,78.83333h-119.89833c-7.91608,0 -14.33333,-6.41725 -14.33333,-14.33333v-64.5z" fill="#dad7e5"></path><path d="M168.41667,46.58333v7.16667h-164.83333v-7.16667c0,-7.91608 6.41725,-14.33333 14.33333,-14.33333h136.16667c7.91608,0 14.33333,6.41725 14.33333,14.33333z" fill="#374f68"></path><path d="M168.41667,46.58333v7.16667h-136.16667v-7.16667c0,-7.91608 6.41725,-14.33333 14.33333,-14.33333h107.5c7.91608,0 14.33333,6.41725 14.33333,14.33333z" fill="#425b72"></path><path d="M154.08333,107.5c0,6.78633 -3.83421,12.99021 -9.90409,16.02515c-6.06988,3.03494 -13.33351,2.37998 -18.76258,-1.69182c4.51152,-3.38364 7.16667,-8.69393 7.16667,-14.33333c0,-5.6394 -2.65515,-10.94969 -7.16667,-14.33333c5.42907,-4.0718 12.6927,-4.72676 18.76258,-1.69182c6.06988,3.03494 9.90409,9.23882 9.90409,16.02515z" fill="#ffcc66"></path><path d="M136.16667,89.58333c-3.87917,-0.01572 -7.6561,1.24326 -10.75,3.58333c0.81917,0.61666 1.57535,1.31283 2.2575,2.07833c6.99831,-1.21889 14.05582,1.81194 17.99085,7.72613c3.93503,5.91419 4.00433,13.59465 0.17665,19.57887c6.66523,-4.30526 9.7048,-12.48176 7.47036,-20.09542c-2.23444,-7.61366 -9.21061,-12.85076 -17.14536,-12.87124z" fill="#ffde76"></path><circle cx="32" cy="30" transform="scale(3.58333,3.58333)" r="5" fill="#db5669"></circle><path d="M125.41667,93.16667c-3.98141,-2.97733 -9.02091,-4.16651 -13.91334,-3.28316c-4.89242,0.88335 -9.19785,3.75981 -11.88666,7.94149c7.06909,-4.47106 16.29119,-3.45596 22.21854,2.44565c5.92734,5.90161 6.98256,15.11921 2.5423,22.20768c4.89476,-3.18274 7.93172,-8.55085 8.13858,-14.38572c0.20686,-5.83487 -2.44232,-11.40457 -7.09941,-14.92594z" fill="#f26674"></path><path d="M46.58333,75.25v7.16667c0,3.95804 -3.20863,7.16667 -7.16667,7.16667h-7.16667v-21.5h7.16667c3.95804,0 7.16667,3.20863 7.16667,7.16667z" fill="#919191"></path><path d="M32.25,68.08333v21.5h-7.16667c-3.95804,0 -7.16667,-3.20863 -7.16667,-7.16667v-7.16667c0,-3.95804 3.20863,-7.16667 7.16667,-7.16667z" fill="#7c7d7d"></path><path d="M68.08333,114.66667h-35.83333v-7.16667h35.83333c1.97902,0 3.58333,1.60431 3.58333,3.58333c0,1.97902 -1.60431,3.58333 -3.58333,3.58333z" fill="#425b72"></path><path d="M32.25,107.5v7.16667h-14.33333c-1.97902,0 -3.58333,-1.60431 -3.58333,-3.58333c0,-1.97902 1.60431,-3.58333 3.58333,-3.58333z" fill="#374f68"></path><path d="M46.58333,129h-9.46c-2.153,-1.8942 -3.68832,-4.39066 -4.4075,-7.16667h13.8675c1.97902,0 3.58333,1.60431 3.58333,3.58333c0,1.97902 -1.60431,3.58333 -3.58333,3.58333z" fill="#425b72"></path><path d="M37.12333,129h-19.20667c-1.97902,0 -3.58333,-1.60431 -3.58333,-3.58333c0,-1.97902 1.60431,-3.58333 3.58333,-3.58333h14.79917c0.71918,2.776 2.2545,5.27247 4.4075,7.16667z" fill="#374f68"></path></g></g></svg>