<?xml version="1.0" encoding="UTF-8" standalone="no"?>
<!-- Created with Inkscape (http://www.inkscape.org/) -->

<svg
   version="1.1"
   id="svg9"
   width="512"
   height="512"
   viewBox="0 0 512 512"
   sodipodi:docname="srv_logo.svg"
   inkscape:version="1.1.1 (3bf5ae0d25, 2021-09-20)"
   xmlns:inkscape="http://www.inkscape.org/namespaces/inkscape"
   xmlns:sodipodi="http://sodipodi.sourceforge.net/DTD/sodipodi-0.dtd"
   xmlns="http://www.w3.org/2000/svg"
   xmlns:svg="http://www.w3.org/2000/svg">
  <defs
     id="defs13">
    <filter
       style="color-interpolation-filters:sRGB"
       id="filter428"
       inkscape:label="Contrast">
      <feColorMatrix
         id="feColorMatrix434" />
    </filter>
    <filter
       style="color-interpolation-filters:sRGB;"
       inkscape:label="Lightness-Contrast"
       id="filter653"
       x="0"
       y="0"
       width="1"
       height="1">
      <feColorMatrix
         values="1.4 0 0 0 -0.2 0 1.4 0 0 -0.2 0 0 1.4 0 -0.2 0 0 0 1 0"
         id="feColorMatrix651" />
    </filter>
  </defs>
  <sodipodi:namedview
     id="namedview11"
     pagecolor="#505050"
     bordercolor="#eeeeee"
     borderopacity="1"
     inkscape:pageshadow="0"
     inkscape:pageopacity="0"
     inkscape:pagecheckerboard="0"
     showgrid="false"
     inkscape:zoom="0.42216981"
     inkscape:cx="531.77654"
     inkscape:cy="465.45252"
     inkscape:window-width="1366"
     inkscape:window-height="745"
     inkscape:window-x="-8"
     inkscape:window-y="-8"
     inkscape:window-maximized="1"
     inkscape:current-layer="g15"
     fit-margin-top="0"
     fit-margin-left="0"
     fit-margin-right="0"
     fit-margin-bottom="0" />
  <g
     inkscape:groupmode="layer"
     inkscape:label="Image"
     id="g15"
     transform="translate(167.14879,176.51298)">
    <g
       id="g39826"
       transform="matrix(3.1013887,0,0,3.4050798,-181.20121,-184.11519)"
       inkscape:export-filename="C:\Users\Dell\Pictures\srv_logo.png"
       inkscape:export-xdpi="96"
       inkscape:export-ydpi="96"
       style="filter:url(#filter653)">
      <path
         style="fill:#005691;fill-opacity:1;stroke:none;stroke-width:0.296089"
         d="m 113.99441,152.20547 c 0,-0.10147 1.5454,-2.01184 3.43421,-4.24526 7.96855,-9.4224 13.08299,-19.35753 14.05552,-27.30379 0.47476,-3.87904 0.14031,-9.60492 -0.75611,-12.94496 C 128.73532,100.2867 124.54261,93.559008 117.56644,86.592161 112.01915,81.052284 107.52105,77.713755 97.767426,71.897162 90.961264,67.838292 86.973551,64.920606 83.4793,61.442983 77.346235,55.339103 74.722144,49.599206 74.407998,41.600559 74.151518,35.07015 75.390238,29.790327 78.651449,23.513604 82.601013,15.912033 89.866728,8.5003351 96.618145,5.1859194 c 2.978017,-1.461972 8.579765,-2.9645016 11.010345,-2.9532492 2.37745,0.011006 5.9959,0.89924 7.67721,1.8845505 1.71487,1.0049862 4.87449,3.9429435 6.23794,5.8003374 1.46986,2.0023539 3.27308,5.7385819 3.85905,7.9958499 0.95642,3.684342 0.19105,7.002085 -3.16009,13.698599 -1.2959,2.589556 -1.69567,3.673122 -1.55782,4.222362 0.23148,0.922295 4.63347,3.93525 7.12367,4.875819 2.64602,0.999423 5.4038,1.326762 7.81834,0.92801 4.78146,-0.789641 7.49313,-2.4512 13.18316,-8.077905 l 4.17028,-4.123873 1.16256,1.270617 c 1.312,1.433954 5.46252,9.174074 7.90553,14.742684 5.07953,11.578276 7.25466,20.438067 7.53229,30.680675 0.23044,8.501304 -0.56502,13.933632 -3.20318,21.875191 -6.71243,20.206163 -25.13264,40.044853 -48.69286,52.442563 -2.02959,1.06799 -3.69016,1.85878 -3.69016,1.75732 z"
         id="path28476"
         sodipodi:insensitive="true" />
      <path
         style="fill:#f8b624;fill-opacity:1;stroke-width:0.296089"
         d="m 60.710502,152.41702 c -4.37054,-0.81895 -9.280563,-5.05732 -11.582407,-9.99803 -1.348012,-2.89339 -1.854221,-5.1791 -1.836071,-8.2905 0.01907,-3.26766 0.721156,-5.94795 2.562228,-9.78149 2.198286,-4.57735 2.218959,-4.71014 0.92352,-5.93189 -2.446178,-2.30704 -8.296685,-4.80459 -11.901923,-5.08085 -2.700737,-0.20695 -5.353272,0.58848 -8.72986,2.61787 -3.687121,2.21602 -6.276947,4.51405 -8.675184,7.69773 l -2.184989,2.9006 -0.725171,-1.2445 C 16.95443,122.54945 13.23416,114.81513 11.873131,111.40283 9.1835193,104.6596 6.6061036,95.683215 5.4840974,89.151709 1.5898654,66.482312 9.7256184,43.431664 28.123232,25.00931 35.574542,17.54798 42.93482,12.014012 53.528191,5.908097 55.904539,4.5383928 57.91005,3.4789524 57.984884,3.553785 58.059718,3.6286177 56.766393,5.7069372 55.11083,8.1722728 50.413665,15.166929 46.381908,23.815462 44.573338,30.776269 c -3.582954,13.790036 0.619297,27.484511 12.112667,39.473289 5.582212,5.822825 11.357867,10.049048 20.741369,15.177097 8.685634,4.746669 12.925883,7.694579 16.325919,11.350122 3.884216,4.176113 6.584237,9.966453 7.279167,15.610583 1.11226,9.03362 -3.252479,19.15547 -12.056812,27.9598 -4.017507,4.0175 -7.554759,6.60918 -12.140452,8.89508 -4.92527,2.45517 -8.495818,3.40887 -12.547742,3.35152 -1.566899,-0.0222 -3.176526,-0.10172 -3.576952,-0.17674 z"
         id="path38792"
         sodipodi:insensitive="true" />
    </g>
  </g>
</svg>
