<svg version="1.1" xmlns="http://www.w3.org/2000/svg" xmlns:xlink="http://www.w3.org/1999/xlink" viewBox="0 0 172 172"><g fill="none" fill-rule="nonzero" stroke="none" stroke-width="1" stroke-linecap="butt" stroke-linejoin="miter" stroke-miterlimit="10" stroke-dasharray="" stroke-dashoffset="0" font-family="none" font-weight="none" font-size="none" text-anchor="none" style="mix-blend-mode: normal"><path d="M0,172v-172h172v172z" fill="none"></path><g><path d="M161.25,125.41667c0,7.91558 -6.41775,14.33333 -14.33333,14.33333h-121.83333c-7.91558,0 -14.33333,-6.41775 -14.33333,-14.33333v-78.83333c0,-7.91558 6.41775,-14.33333 14.33333,-14.33333h121.83333c7.91558,0 14.33333,6.41775 14.33333,14.33333z" fill="#1565c0"></path><path d="M54.4165,68.08333l-9.40983,28.06467c0,0 -2.39008,-11.87158 -2.62658,-13.36225c-5.35708,-12.22275 -13.26192,-11.54192 -13.26192,-11.54192l9.31667,36.25617v-0.00717h11.32692l15.66275,-39.4095zM63.38558,107.5h10.28775l6.22067,-39.41667h-10.41675zM136.19533,68.08333h-10.82525l-16.8775,39.41667h10.21967l2.107,-5.62942h12.88567l1.0965,5.62942h9.36325zM123.67158,94.342l5.60075,-14.89592l2.93117,14.89592zM94.48892,79.5715c0,-2.1715 1.7845,-3.78758 6.9015,-3.78758c3.32533,0 7.13442,2.41517 7.13442,2.41517l1.66983,-8.27392c0,0 -4.86617,-1.84542 -9.64275,-1.84542c-10.81808,0 -16.39733,5.17433 -16.39733,11.72467c0,11.8465 14.25808,10.22325 14.25808,16.30775c0,1.04275 -0.82775,3.45433 -6.76533,3.45433c-5.9555,0 -9.88642,-2.18225 -9.88642,-2.18225l-1.77375,7.94067c0,0 3.80908,2.1715 11.16925,2.1715c7.37808,0 17.61208,-5.51833 17.61208,-13.44467c0,-9.53525 -14.27958,-10.22325 -14.27958,-14.48025z" fill="#ffffff"></path><path d="M43.75967,89.38625l-3.4615,-17.01367c0,0 -1.56592,-3.68725 -5.63658,-3.68725c-4.07067,0 -15.91,0 -15.91,0c0,0 20.28525,5.99133 25.00808,20.70092z" fill="#ffc107"></path></g></g></svg>